<svg xmlns="http://www.w3.org/2000/svg" xmlns:xlink="http://www.w3.org/1999/xlink" version="1.1" x="0px" y="0px" viewBox="0 0 50 62.5" enable-background="new 0 0 50 50" xml:space="preserve"><g><path d="M35.7,19.6c-0.1-0.2-0.2-0.4-0.2-0.6L31,14.5c-0.2,0-0.3-0.1-0.5-0.1c-0.7-0.3-1.3-0.7-1.8-1.3c-0.5-0.4-1.2-0.4-1.6,0   L1.8,38.4c-0.9,0.9-1.1,2.3-0.4,3.4c1.7,2.7,4,4.9,6.7,6.7c0.8,0.5,1.9,0.6,2.7,0.1c0.3-0.1,0.5-0.3,0.7-0.5l25.3-25.3   c0.4-0.4,0.5-1.1,0-1.6C36.5,20.7,36.1,20.2,35.7,19.6z"/><path d="M48.9,4.4L48.9,4.4L48.9,4.4l-3.2-3.2l0,0C45.5,1,45.2,1,45,1.2l-1.2,1.2c-0.2,0.2-0.2,0.4,0,0.6L32.8,14   c-0.2,0.2-0.3,0.3-0.5,0.4l3.4,3.4c0.1-0.2,0.2-0.4,0.4-0.5l11.1-11c0.2,0.2,0.4,0.1,0.6,0L48.9,5C49,4.8,49,4.6,48.9,4.4z"/></g><text x="0" y="65" fill="#000000" font-size="5px" font-weight="bold" font-family="'Helvetica Neue', Helvetica, Arial-Unicode, Arial, Sans-serif">Created by ProSymbols</text><text x="0" y="70" fill="#000000" font-size="5px" font-weight="bold" font-family="'Helvetica Neue', Helvetica, Arial-Unicode, Arial, Sans-serif">from the Noun Project</text></svg>