<svg xmlns="http://www.w3.org/2000/svg" xmlns:xlink="http://www.w3.org/1999/xlink" viewBox="0 0 56 70" version="1.1" x="0px" y="0px"><title>Leisure - Solid - 017 - Cricketball</title><desc>Created with Sketch.</desc><g stroke="none" stroke-width="1" fill="none" fill-rule="evenodd"><g transform="translate(0.000000, -1.000000)" fill-rule="nonzero" fill="#000000"><path d="M53.287,16.98419 C53.22236,17.07782 53.15974,17.17206 53.09474,17.26562 C52.8911487,17.5594477 52.5461846,17.7222368 52.1899467,17.6925933 C51.8337089,17.6629498 51.5203951,17.4453837 51.368168,17.1219474 C51.2159408,16.7985111 51.2479601,16.418412 51.45215,16.125 C51.71631,15.74451 51.97504,15.36176 52.23444,14.97937 C51.83234,14.28394 51.39466,13.60419 50.92786,12.93837 C45.12268,19.80721 38.85059,26.63374 32.24219,33.24263 C25.63977,39.84558 18.81226,46.11841 11.93561,51.9314 C12.5980833,52.3975267 13.2773233,52.8333367 13.97333,53.23883 C14.35797,52.97783 14.74292,52.71741 15.12598,52.45166 C15.5795544,52.1379567 16.2014818,52.2507259 16.5160391,52.7037085 C16.8305964,53.1566911 16.7189992,53.7788298 16.26661,54.09424 C16.16767,54.1629 16.068,54.22919 15.969,54.29755 C26.67028,59.382283 39.4133578,57.1832759 47.7915843,48.8060912 C56.1698107,40.4289064 58.3704023,27.6861022 53.287,16.98419 L53.287,16.98419 Z M21.1582,50.54639 C20.6220667,50.95313 20.0836567,51.3551467 19.54297,51.75244 C19.2551661,51.9645735 18.8759805,52.0068491 18.5485227,51.8633113 C18.2210649,51.7197736 17.9951973,51.4122792 17.9561652,51.0568806 C17.9171332,50.7014819 18.0708801,50.352296 18.35938,50.14111 C18.8906333,49.7499967 19.42058,49.3538367 19.94922,48.95263 C20.233916,48.736663 20.612203,48.6889847 20.941584,48.8275551 C21.270965,48.9661256 21.5013991,49.2698926 21.546084,49.6244301 C21.5907689,49.9789677 21.442916,50.330413 21.15822,50.54638 L21.1582,50.54639 Z M25.8955,46.79439 C25.3769467,47.22359 24.8561133,47.64807 24.333,48.06783 C24.0542346,48.2914783 23.6773298,48.3494182 23.344262,48.2198244 C23.0111942,48.0902306 22.7725644,47.7927915 22.718262,47.4395494 C22.6639597,47.0863073 22.8022346,46.7309283 23.081,46.50728 C23.5966267,46.0941933 24.1096467,45.6762233 24.62006,45.25337 C25.0457899,44.9037764 25.6740583,44.9642495 26.0252904,45.3886286 C26.3765226,45.8130076 26.3184719,46.4415045 25.89545,46.79437 L25.8955,46.79439 Z M30.4707,42.85054 C29.9707,43.29976 29.46842,43.74491 28.96386,44.18599 C28.5479169,44.5484229 27.9170404,44.5055635 27.5539375,44.090205 C27.1908347,43.6748465 27.2326773,43.0439018 27.64745,42.68013 C28.1454967,42.24507 28.6412633,41.80578 29.13475,41.36226 C29.4000746,41.1200047 29.7749657,41.0387041 30.1168083,41.1492863 C30.4586509,41.2598685 30.7148969,41.5453349 30.7880662,41.8970891 C30.8612354,42.2488434 30.7400802,42.6128138 30.47069,42.85054 L30.4707,42.85054 Z M34.88183,38.7231 C34.39941,39.19234 33.9150367,39.6576733 33.42871,40.1191 C33.0277098,40.4987957 32.3948308,40.4815251 32.015135,40.080525 C31.6354393,39.6795248 31.6527099,39.0466458 32.05371,38.66695 C32.5332033,38.2123633 33.0104167,37.7535433 33.48535,37.29049 C33.8810621,36.9055267 34.5138319,36.9139245 34.8991883,37.3092537 C35.2845448,37.704583 35.276776,38.3373608 34.88183,38.72311 L34.88183,38.7231 Z M39.124,34.42432 C38.66306,34.9106467 38.1982167,35.3945333 37.72947,35.87598 C37.3438978,36.2707045 36.7115177,36.2786692 36.3161265,35.8937806 C35.9207353,35.5088921 35.9116763,34.8765267 36.29588,34.48047 C36.7587733,34.00537 37.2177733,33.5279933 37.67288,33.04834 C38.0528519,32.6476105 38.6857355,32.6307831 39.086465,33.010755 C39.4871945,33.3907269 39.5040219,34.0236105 39.12405,34.42434 L39.124,34.42432 Z M43.18943,29.9585 C42.7490033,30.4628933 42.3040033,30.9653333 41.85443,31.46582 C41.4849668,31.8755368 40.8535342,31.9087628 40.4431118,31.5400836 C40.0326894,31.1714045 39.9982562,30.5400366 40.36615,30.12891 C40.8094833,29.6357433 41.24861,29.1404633 41.68353,28.64307 C41.9182008,28.3729412 42.2793478,28.2488294 42.6304969,28.3176354 C42.981646,28.3864414 43.2692465,28.6376721 43.3846167,28.9763898 C43.499987,29.3151074 43.4255329,29.6896571 43.18939,29.9585 L43.18943,29.9585 Z M47.06931,25.32959 C46.64939,25.85159 46.2258867,26.37161 45.7988,26.88965 C45.4474199,27.3157377 44.8171577,27.3763001 44.39107,27.02492 C43.9649823,26.6735399 43.9044199,26.0432777 44.2558,25.61719 C44.6776733,25.10547 45.0959667,24.59196 45.51068,24.07666 C45.7343702,23.7978516 46.0898819,23.6596626 46.4431473,23.7142059 C46.7964128,23.7687491 47.0936909,24.0077271 47.2228745,24.3410183 C47.3520582,24.6743095 47.293495,25.0512115 47.06927,25.32959 L47.06931,25.32959 Z M50.7529,20.54248 C50.3564133,21.08154 49.95472,21.6189733 49.54782,22.15478 C49.3328139,22.4412056 48.9810042,22.59072 48.6255729,22.5467226 C48.2701415,22.5027252 47.9654075,22.27194 47.8267318,21.9417336 C47.688056,21.6115272 47.7366318,21.2323636 47.95407,20.94778 C48.3544633,20.41848 48.7509467,19.88788 49.14352,19.35598 C49.3554714,19.0684919 49.7046956,18.9159167 50.0596432,18.955728 C50.4145909,18.9955392 50.721337,19.2216887 50.8643333,19.548988 C51.0073295,19.8762873 50.9648514,20.255012 50.7529,20.5425 L50.7529,20.54248 Z"/><path d="M44.07568,6.07648 C43.40968,5.60736667 42.72668,5.16893 42.02668,4.76117 C41.64204,5.02217 41.25709,5.28259 40.87403,5.54834 C40.4204556,5.86204331 39.7985282,5.74927411 39.4839709,5.29629152 C39.1694136,4.84330893 39.2810108,4.22117018 39.7334,3.90576 C39.83234,3.8371 39.93201,3.77081 40.03101,3.70245 C29.3297291,-1.38229009 16.5866458,0.816713675 8.20841548,9.19390003 C-0.169814842,17.5710864 -2.37040654,30.3138956 2.713,41.01581 C2.77764,40.92218 2.84026,40.82794 2.90526,40.73438 C3.22046856,40.2814391 3.8430219,40.1694852 4.29628391,40.4842318 C4.74954593,40.7989785 4.86213443,41.4214174 4.54785,41.875 C4.28369,42.25549 4.02496,42.63824 3.76556,43.02063 C4.16986,43.71985 4.60998,44.40326 5.07971,45.07245 C10.8905,38.19781 17.16309,31.37012 23.7666,24.7666 C30.37225,18.16144 37.20026,11.88776 44.07568,6.07648 Z M34.8418,7.45361 C35.3779333,7.04687 35.9163433,6.64485333 36.45703,6.24756 C36.7448339,6.03542649 37.1240195,5.99315094 37.4514773,6.13668868 C37.7789351,6.28022643 38.0048027,6.58772076 38.0438348,6.94311942 C38.0828668,7.29851809 37.9291199,7.64770401 37.64062,7.85889 C37.1093733,8.25000333 36.5794267,8.64616333 36.05078,9.04737 C35.766084,9.26333705 35.387797,9.31101532 35.058416,9.17244486 C34.729035,9.0338744 34.4986009,8.73010736 34.453916,8.37556986 C34.4092311,8.02103235 34.557084,7.66958705 34.84178,7.45362 L34.8418,7.45361 Z M30.1045,11.20561 C30.6230533,10.77641 31.1438867,10.35193 31.667,9.93217 C31.9457654,9.70852174 32.3226702,9.6505818 32.655738,9.7801756 C32.9888058,9.90976939 33.2274356,10.2072085 33.281738,10.5604506 C33.3360403,10.9136927 33.1977654,11.2690717 32.919,11.49272 C32.4033733,11.9058067 31.8903533,12.3237767 31.37994,12.74663 C31.1048398,12.976106 30.7280157,13.0409219 30.392052,12.9165523 C30.0560884,12.7921827 29.8123004,12.4976239 29.7529335,12.1443323 C29.6935667,11.7910408 29.8276888,11.4329782 30.10455,11.20563 L30.1045,11.20561 Z M25.5293,15.14946 C26.0293,14.70024 26.53158,14.25509 27.03614,13.81401 C27.4520831,13.4515771 28.0829596,13.4944365 28.4460625,13.909795 C28.8091653,14.3251535 28.7673227,14.9560982 28.35255,15.31987 C27.8545033,15.75493 27.3587367,16.19422 26.86525,16.63774 C26.5999254,16.8799953 26.2250343,16.9612959 25.8831917,16.8507137 C25.5413491,16.7401315 25.2851031,16.4546651 25.2119338,16.1029109 C25.1387646,15.7511566 25.2599198,15.3871862 25.52931,15.14946 L25.5293,15.14946 Z M8.0459,37.05225 C7.64550667,37.58155 7.24902333,38.11215 6.85645,38.64405 C6.64481618,38.9324113 6.29524956,39.0857365 5.93976125,39.0461235 C5.58427293,39.0065104 5.27703296,38.7799954 5.1340681,38.4521202 C4.99110324,38.1242449 5.03419877,37.7449717 5.24708,37.45753 C5.64356667,36.91847 6.04526,36.3810367 6.45216,35.84523 C6.66716606,35.5588044 7.01897578,35.40929 7.37440714,35.4532874 C7.7298385,35.4972848 8.03457251,35.72807 8.17324824,36.0582764 C8.31192397,36.3884828 8.26334824,36.7676464 8.04591,37.05223 L8.0459,37.05225 Z M11.74414,32.38282 C11.3222667,32.89454 10.9039733,33.40805 10.48926,33.92335 C10.2655698,34.2021584 9.91005811,34.3403474 9.55679266,34.2858041 C9.20352721,34.2312609 8.9062491,33.9922829 8.77706547,33.6589917 C8.64788184,33.3257005 8.70644497,32.9487985 8.93067,32.67042 C9.35059,32.14842 9.77409333,31.6284 10.20118,31.11036 C10.4284831,30.8347296 10.7855669,30.7013014 11.1379213,30.7603364 C11.4902758,30.8193714 11.78437,31.061901 11.9094213,31.3965664 C12.0344727,31.7312318 11.9714831,32.1071896 11.74418,32.38282 L11.74414,32.38282 Z M15.63379,27.8711 C15.1904567,28.3642667 14.75133,28.8595467 14.31641,29.35694 C14.0817392,29.6270688 13.7205922,29.7511806 13.3694431,29.6823746 C13.018294,29.6135686 12.7306935,29.3623379 12.6153233,29.0236202 C12.499953,28.6849026 12.5744071,28.3103529 12.81055,28.04151 C13.2509767,27.5371167 13.6959767,27.0346767 14.14555,26.53419 C14.5150132,26.1244732 15.1464458,26.0912472 15.5568682,26.4599264 C15.9672906,26.8286055 16.0017238,27.4599734 15.63383,27.8711 L15.63379,27.8711 Z M19.7041,23.51954 C19.2412067,23.99464 18.7822067,24.4720167 18.3271,24.95167 C18.0813013,25.2108966 17.7158782,25.3192997 17.368482,25.2360451 C17.0210858,25.1527904 16.7444944,24.8905263 16.642897,24.5480451 C16.5412996,24.2055638 16.6301313,23.8348965 16.87593,23.57567 C17.33687,23.0893433 17.8017133,22.6054567 18.27046,22.12401 C18.6560322,21.7292855 19.2884123,21.7213208 19.6838035,22.1062094 C20.0791947,22.4910979 20.0882537,23.1234633 19.70405,23.51952 L19.7041,23.51954 Z M21.8164,20.99317 C21.4097032,20.9928767 21.0436543,20.7464217 20.8903966,20.3697063 C20.7371389,19.992991 20.8271737,19.5609891 21.11816,19.27686 C21.60058,18.80762 22.0849567,18.3422867 22.57129,17.88086 C22.8306916,17.6352399 23.2014253,17.5466667 23.5438394,17.648505 C23.8862534,17.7503434 24.148327,18.0271216 24.2313394,18.37458 C24.3143518,18.7220385 24.2056916,19.0873899 23.94629,19.33301 C23.4667967,19.7875967 22.9895833,20.2464167 22.51465,20.70947 C22.3279988,20.8917678 22.0773141,20.9936192 21.81641,20.99316 L21.8164,20.99317 Z"/><path d="M49.69745,11.30121 C49.31391,10.83167 48.90662,10.37555 48.48792,9.92615 L8.92542,49.48865 C9.37378,49.90665 9.83014,50.3133 10.3006,50.69843 C17.25171,44.84101 24.1546,38.50214 30.82813,31.82862 C37.50885,25.14789 43.84747,18.24445 49.69745,11.30121 Z"/><path d="M45.71021,7.31 C38.76136,13.16577 31.85633,19.50452 25.18067,26.18067 C18.50537,32.856 12.16644,39.7597 6.311,46.70856 C6.6921,47.17462 7.0964,47.62763 7.51211,48.07386 L47.07461,8.51136 C46.62958,8.09644 46.17694,7.6925 45.71021,7.31 Z"/></g></g><text x="0" y="71" fill="#000000" font-size="5px" font-weight="bold" font-family="'Helvetica Neue', Helvetica, Arial-Unicode, Arial, Sans-serif">Created by Smashicons</text><text x="0" y="76" fill="#000000" font-size="5px" font-weight="bold" font-family="'Helvetica Neue', Helvetica, Arial-Unicode, Arial, Sans-serif">from the Noun Project</text></svg>